<svg width="32" height="32" viewBox="0 0 32 32" fill="none" xmlns="http://www.w3.org/2000/svg">
<g id="Logo IG">
<path d="M32 16C32 24.8366 24.8366 32 16 32C7.16344 32 0 24.8366 0 16C0 7.16344 7.16344 0 16 0C24.8366 0 32 7.16344 32 16Z" fill="#585756"/>
<path fill-rule="evenodd" clip-rule="evenodd" d="M12.6667 7.11111H19.3333C22.4011 7.11111 24.8889 9.59889 24.8889 12.6667V19.3333C24.8889 22.4011 22.4011 24.8889 19.3333 24.8889H12.6667C9.59889 24.8889 7.11111 22.4011 7.11111 19.3333V12.6667C7.11111 9.59889 9.59889 7.11111 12.6667 7.11111ZM19.3333 23.2222C21.4778 23.2222 23.2222 21.4778 23.2222 19.3333V12.6667C23.2222 10.5222 21.4778 8.77778 19.3333 8.77778H12.6667C10.5222 8.77778 8.77778 10.5222 8.77778 12.6667V19.3333C8.77778 21.4778 10.5222 23.2222 12.6667 23.2222H19.3333Z" fill="#F4F0EC"/>
<path fill-rule="evenodd" clip-rule="evenodd" d="M11.5556 16C11.5556 13.5456 13.5456 11.5556 16 11.5556C18.4544 11.5556 20.4444 13.5456 20.4444 16C20.4444 18.4544 18.4544 20.4444 16 20.4444C13.5456 20.4444 11.5556 18.4544 11.5556 16ZM13.2222 16C13.2222 17.5311 14.4689 18.7778 16 18.7778C17.5311 18.7778 18.7778 17.5311 18.7778 16C18.7778 14.4678 17.5311 13.2222 16 13.2222C14.4689 13.2222 13.2222 14.4678 13.2222 16Z" fill="#F4F0EC"/>
<path d="M21.3702 11.2222C21.3702 11.5493 21.1051 11.8144 20.778 11.8144C20.4509 11.8144 20.1858 11.5493 20.1858 11.2222C20.1858 10.8951 20.4509 10.63 20.778 10.63C21.1051 10.63 21.3702 10.8951 21.3702 11.2222Z" fill="#F4F0EC"/>
</g>
</svg>
