<svg xmlns="http://www.w3.org/2000/svg" width="14" height="12" viewBox="0 0 14 12" fill="none">
  <path d="M1.6 1.8002L6.26327 5.42718C6.6966 5.76422 7.3034 5.76422 7.73673 5.42718L12.4 1.8002M2.92 10.8002H11.08C11.7521 10.8002 12.0881 10.8002 12.3448 10.6694C12.5706 10.5544 12.7542 10.3708 12.8692 10.145C13 9.88829 13 9.55226 13 8.8802V3.1202C13 2.44813 13 2.1121 12.8692 1.85541C12.7542 1.62961 12.5706 1.44604 12.3448 1.33099C12.0881 1.2002 11.7521 1.2002 11.08 1.2002H2.92C2.24794 1.2002 1.91191 1.2002 1.65521 1.33099C1.42942 1.44604 1.24584 1.62961 1.13079 1.85541C1 2.1121 1 2.44813 1 3.1202V8.8802C1 9.55226 1 9.88829 1.13079 10.145C1.24584 10.3708 1.42942 10.5544 1.65521 10.6694C1.91191 10.8002 2.24794 10.8002 2.92 10.8002Z" stroke="#1E1E1E"/>
</svg>