<svg xmlns="http://www.w3.org/2000/svg" width="40" height="40" viewBox="0 0 40 40" fill="none">
<path d="M33.1224 10.2215L32.316 9.95269L33.1224 10.2215ZM31.5614 14.9046L30.755 14.6358L30.755 14.6358L31.5614 14.9046ZM29.9507 17.5108L29.3496 16.9097L29.9507 17.5108ZM18.8356 28.6258L18.2346 28.0248L18.8356 28.6258ZM14.121 28.6258L14.722 28.0248V28.0248L14.121 28.6258ZM10.5012 25.006L9.90011 25.607L10.5012 25.006ZM10.5012 20.2913L9.90012 19.6903L10.5012 20.2913ZM21.6162 9.17628L22.2172 9.77732L21.6162 9.17628ZM24.2224 7.56555L23.9536 6.75917V6.75917L24.2224 7.56555ZM28.9055 6.00452L28.6367 5.19814H28.6367L28.9055 6.00452ZM22.4706 8.37882L22.9825 9.05739L22.9825 9.05739L22.4706 8.37882ZM23.127 7.97309L23.505 8.73442L23.127 7.97309ZM9.10885 23.2925L8.30045 23.5552L8.30046 23.5552L9.10885 23.2925ZM9.10885 22.0048L8.30046 21.7421L8.30045 21.7421L9.10885 22.0048ZM17.1222 30.0181L17.3848 30.8265H17.3848L17.1222 30.0181ZM15.8344 30.0181L15.5718 30.8265L15.8344 30.0181ZM31.1539 15.9999L30.3925 15.6219H30.3925L31.1539 15.9999ZM30.7481 16.6564L31.4267 17.1683L31.4267 17.1683L30.7481 16.6564ZM33.899 6.4907L34.6996 6.2052L33.899 6.4907ZM32.6363 5.22797L32.9218 4.42735H32.9218L32.6363 5.22797ZM11.71 35.7514C12.042 36.0834 12.5801 36.0834 12.9121 35.7514C13.244 35.4195 13.244 34.8813 12.9121 34.5493L11.71 35.7514ZM4.5776 26.2149C4.24566 25.8829 3.70747 25.8829 3.37552 26.2149C3.04358 26.5468 3.04358 27.085 3.37552 27.4169L4.5776 26.2149ZM32.316 9.95269L30.755 14.6358L32.3678 15.1733L33.9288 10.4903L32.316 9.95269ZM29.3496 16.9097L18.2346 28.0248L19.4367 29.2268L30.5517 18.1118L29.3496 16.9097ZM14.722 28.0248L11.1022 24.405L9.90011 25.607L13.5199 29.2268L14.722 28.0248ZM11.1022 20.8923L22.2172 9.77732L21.0151 8.57524L9.90012 19.6903L11.1022 20.8923ZM24.4912 8.37193L29.1743 6.81091L28.6367 5.19814L23.9536 6.75917L24.4912 8.37193ZM22.2172 9.77732C22.6484 9.34619 22.8088 9.1884 22.9825 9.05739L21.9587 7.70026C21.6688 7.91889 21.4142 8.17619 21.0151 8.57524L22.2172 9.77732ZM23.9536 6.75917C23.4182 6.93763 23.0742 7.05032 22.749 7.21177L23.505 8.73442C23.6999 8.63768 23.9128 8.56474 24.4912 8.37193L23.9536 6.75917ZM22.9825 9.05739C23.1463 8.9338 23.3212 8.82568 23.505 8.73442L22.749 7.21177C22.471 7.3498 22.2064 7.51333 21.9586 7.70026L22.9825 9.05739ZM11.1022 24.405C10.6797 23.9825 10.3995 23.7013 10.2015 23.4681C10.0101 23.2426 9.94606 23.1185 9.91725 23.0299L8.30046 23.5552C8.42623 23.9423 8.64581 24.2624 8.90555 24.5683C9.15885 24.8667 9.49746 25.2044 9.90011 25.607L11.1022 24.405ZM9.90012 19.6903C9.49746 20.0929 9.15885 20.4306 8.90555 20.729C8.64581 21.0349 8.42623 21.355 8.30046 21.7421L9.91725 22.2674C9.94606 22.1788 10.0101 22.0547 10.2015 21.8292C10.3995 21.596 10.6797 21.3148 11.1022 20.8923L9.90012 19.6903ZM9.91725 23.0299C9.83675 22.7821 9.83675 22.5152 9.91725 22.2674L8.30045 21.7421C8.10901 22.3313 8.10901 22.966 8.30045 23.5552L9.91725 23.0299ZM18.2346 28.0248C17.8121 28.4472 17.5309 28.7275 17.2978 28.9254C17.0722 29.1169 16.9482 29.1809 16.8595 29.2097L17.3848 30.8265C17.7719 30.7007 18.092 30.4811 18.398 30.2214C18.6964 29.9681 19.034 29.6295 19.4367 29.2268L18.2346 28.0248ZM13.5199 29.2268C13.9226 29.6295 14.2602 29.9681 14.5586 30.2214C14.8646 30.4811 15.1847 30.7007 15.5718 30.8265L16.0971 29.2097C16.0084 29.1809 15.8844 29.1169 15.6588 28.9254C15.4257 28.7275 15.1445 28.4472 14.722 28.0248L13.5199 29.2268ZM16.8595 29.2097C16.6117 29.2902 16.3449 29.2902 16.0971 29.2097L15.5718 30.8265C16.161 31.0179 16.7956 31.0179 17.3848 30.8265L16.8595 29.2097ZM30.755 14.6358C30.5622 15.2142 30.4893 15.4271 30.3925 15.6219L31.9152 16.3779C32.0766 16.0527 32.1893 15.7087 32.3678 15.1733L30.755 14.6358ZM30.5517 18.1118C30.9508 17.7128 31.2081 17.4581 31.4267 17.1683L30.0696 16.1445C29.9386 16.3182 29.7808 16.4786 29.3496 16.9097L30.5517 18.1118ZM30.3925 15.6219C30.3013 15.8057 30.1932 15.9807 30.0696 16.1445L31.4267 17.1683C31.6136 16.9205 31.7772 16.6559 31.9152 16.3779L30.3925 15.6219ZM33.9288 10.4903C34.2628 9.4884 34.5327 8.68128 34.6832 8.04092C34.8307 7.41317 34.9065 6.78547 34.6996 6.2052L33.0984 6.7762C33.1328 6.87286 33.1597 7.0926 33.0283 7.65204C32.8998 8.19886 32.6607 8.91866 32.316 9.95269L33.9288 10.4903ZM29.1743 6.81091C30.2083 6.46623 30.9281 6.22719 31.4749 6.0987C32.0343 5.96724 32.2541 5.99412 32.3508 6.02859L32.9218 4.42735C32.3415 4.22043 31.7138 4.29626 31.086 4.44378C30.4457 4.59425 29.6386 4.86419 28.6367 5.19814L29.1743 6.81091ZM34.6996 6.2052C34.4038 5.3758 33.7512 4.72311 32.9218 4.42735L32.3508 6.02859C32.6995 6.15296 32.974 6.42742 33.0984 6.7762L34.6996 6.2052ZM12.9121 34.5493L4.5776 26.2149L3.37552 27.4169L11.71 35.7514L12.9121 34.5493Z" fill="#585756"/>
</svg>