<svg xmlns="http://www.w3.org/2000/svg" width="40" height="40" viewBox="0 0 40 40" fill="none">
<path d="M22.6481 28.3496V7.94961C22.6481 7.48017 22.2675 7.09961 21.7981 7.09961H3.09805C2.6286 7.09961 2.24805 7.48017 2.24805 7.94961V28.3496C2.24805 28.8191 2.6286 29.1996 3.09805 29.1996H5.64805M22.6481 28.3496C22.6481 28.8191 22.2675 29.1996 21.7981 29.1996H12.448M22.6481 28.3496V13.0496C22.6481 12.5802 23.0286 12.1996 23.4981 12.1996H29.096C29.3214 12.1996 29.5376 12.2892 29.697 12.4486L35.9991 18.7507C36.1585 18.9101 36.2481 19.1263 36.2481 19.3517V28.3496C36.2481 28.8191 35.8675 29.1996 35.3981 29.1996H32.8481M22.6481 28.3496C22.6481 28.8191 23.0286 29.1996 23.4981 29.1996H26.0481M5.64805 29.1996C5.64805 31.0774 7.17028 32.5996 9.04805 32.5996C10.9258 32.5996 12.448 31.0774 12.448 29.1996M5.64805 29.1996C5.64805 27.3218 7.17028 25.7996 9.04805 25.7996C10.9258 25.7996 12.448 27.3218 12.448 29.1996M26.0481 29.1996C26.0481 31.0774 27.5703 32.5996 29.4481 32.5996C31.3258 32.5996 32.8481 31.0774 32.8481 29.1996M26.0481 29.1996C26.0481 27.3218 27.5703 25.7996 29.4481 25.7996C31.3258 25.7996 32.8481 27.3218 32.8481 29.1996" stroke="#585756" stroke-width="1.7"/>
</svg>