<svg xmlns="http://www.w3.org/2000/svg" width="40" height="40" viewBox="0 0 40 40" fill="none">
<path d="M23.8889 16.0185L18.1491 21.7583C17.8418 22.0657 17.3434 22.0657 17.0361 21.7583L14.4444 19.1667M12.2145 5H26.1188C26.6259 5 27.037 5.4111 27.037 5.91821C27.037 8.45378 29.0925 10.5093 31.6281 10.5093H32.284C32.8635 10.5093 33.3333 10.9791 33.3333 11.5586V12.9101C33.3333 21.6294 28.6062 29.6632 20.9842 33.8977L20.3889 34.2284C19.6288 34.6507 18.7046 34.6507 17.9445 34.2284L17.3491 33.8977C9.72715 29.6632 5 21.6294 5 12.9101V11.5586C5 10.9791 5.46982 10.5093 6.04938 10.5093H6.70525C9.24081 10.5093 11.2963 8.45378 11.2963 5.91821C11.2963 5.4111 11.7074 5 12.2145 5Z" stroke="#585756" stroke-width="1.7" stroke-linecap="round"/>
</svg>