<svg xmlns="http://www.w3.org/2000/svg" width="14" height="14" viewBox="0 0 14 14" fill="none">
  <path d="M4.51548 5.06246C4.96438 5.99743 5.57632 6.87371 6.3513 7.6487C7.12629 8.42368 8.00257 9.03562 8.93754 9.48452C9.01796 9.52313 9.05817 9.54244 9.10905 9.55727C9.28987 9.60998 9.51191 9.57212 9.66505 9.46247C9.70814 9.43161 9.745 9.39475 9.81873 9.32102C10.0442 9.09553 10.157 8.98279 10.2703 8.90908C10.6979 8.6311 11.2491 8.6311 11.6766 8.90908C11.79 8.98279 11.9027 9.09553 12.1282 9.32102L12.2539 9.44671C12.5967 9.78947 12.768 9.96085 12.8611 10.1449C13.0463 10.511 13.0463 10.9433 12.8611 11.3093C12.768 11.4934 12.5967 11.6648 12.2539 12.0076L12.1522 12.1092C11.8106 12.4508 11.6398 12.6216 11.4076 12.7521C11.15 12.8968 10.7498 13.0009 10.4542 13C10.1879 12.9992 10.0058 12.9475 9.64179 12.8442C7.68534 12.2889 5.83919 11.2412 4.29901 9.70098C2.75883 8.1608 1.71109 6.31466 1.15579 4.35821C1.05246 3.99415 1.0008 3.81213 1.00001 3.54579C0.999126 3.25025 1.1032 2.85005 1.24794 2.59238C1.37839 2.36017 1.54919 2.18937 1.89078 1.84778L1.99245 1.74611C2.33521 1.40335 2.5066 1.23196 2.69066 1.13886C3.05672 0.953712 3.48902 0.953712 3.85508 1.13886C4.03914 1.23196 4.21053 1.40334 4.55329 1.74611L4.67898 1.8718C4.90447 2.09728 5.01721 2.21002 5.09092 2.3234C5.3689 2.75094 5.3689 3.30212 5.09092 3.72967C5.01721 3.84304 4.90447 3.95578 4.67898 4.18127C4.60525 4.255 4.56839 4.29186 4.53753 4.33495C4.42788 4.48809 4.39002 4.71013 4.44273 4.89095C4.45756 4.94183 4.47687 4.98204 4.51548 5.06246Z" stroke="#1E1E1E" stroke-linecap="round" stroke-linejoin="round"/>
</svg>