<svg width="24" height="14" viewBox="0 0 24 14" fill="none" xmlns="http://www.w3.org/2000/svg">
<g id="Vector">
<path d="M18.24 10.24L17.4 9.39996L19.8 6.99996L17.4 4.59996L18.24 3.75996L21 6.51996C21.24 6.75996 21.24 7.11996 21 7.35996L18.24 10.24Z" fill="#00B2B0"/>
<path d="M3.6 6.3999H20.4V7.5999H3.6V6.3999Z" fill="#00B2B0"/>
<path d="M5.75997 10.2398L2.99997 7.47979C2.75997 7.23979 2.75997 6.87979 2.99997 6.63979L5.75997 3.87979L6.59997 4.71979L4.19997 7.11979L6.59997 9.51979L5.75997 10.2398Z" fill="#00B2B0"/>
<path d="M0 0.399902H1.2V13.5999H0V0.399902Z" fill="#00B2B0"/>
<path d="M22.8 0.399902H24V13.5999H22.8V0.399902Z" fill="#00B2B0"/>
</g>
</svg>
