<svg xmlns="http://www.w3.org/2000/svg" width="14" height="14" viewBox="0 0 14 14" fill="none">
  <path d="M12.5303 4.45246C12.227 3.77869 11.7916 3.17377 11.2388 2.65246C10.686 2.13607 10.0452 1.72787 9.33095 1.44262C8.59227 1.14754 7.80956 1 7.00239 1C6.19523 1 5.41252 1.14754 4.67384 1.44262C3.95962 1.72787 3.31877 2.13115 2.76599 2.65246C2.2132 3.17377 1.77782 3.77869 1.47453 4.45246C1.16144 5.15082 1 5.89836 1 6.66557C1 8.0082 1.49897 9.29672 2.41376 10.3197L1.92457 13L4.52708 11.8344C5.30489 12.1689 6.13163 12.3361 6.9975 12.3361C7.80466 12.3361 8.58738 12.1885 9.32606 11.8934C10.0403 11.6082 10.6811 11.2049 11.2339 10.6836C11.7867 10.1623 12.2221 9.55738 12.5254 8.88361C12.8385 8.18524 12.9999 7.4377 12.9999 6.67049C13.0048 5.89836 12.8433 5.15574 12.5303 4.45246Z" stroke="#1E1E1E" stroke-width="0.8"/>
  <path d="M9.43712 7.79667C9.18274 7.66881 8.99687 7.59012 8.86478 7.54094C8.78162 7.51143 8.58594 7.4229 8.51745 7.477C8.30221 7.65405 8.07228 8.15569 7.82769 8.24913C7.22109 8.1311 6.65852 7.71307 6.21825 7.2852C6.02257 7.09831 5.66057 6.56717 5.5823 6.42454C5.56763 6.277 5.83178 6.08028 5.89048 5.96717C6.19378 5.6229 5.96387 5.40651 5.92474 5.26389C5.85625 5.11635 5.73885 4.85077 5.63612 4.63438C5.54806 4.49176 5.52848 4.28028 5.37193 4.20159C4.70663 3.85733 4.32508 4.54586 4.16854 4.90487C3.2244 7.19176 8.89902 11.5442 10.0535 8.54422C10.1122 8.28356 10.0877 8.1852 9.99969 8.06717C9.82359 7.94422 9.61813 7.89012 9.43712 7.79667Z" stroke="#1E1E1E" stroke-width="0.8"/>
</svg>