<svg xmlns="http://www.w3.org/2000/svg" width="96" height="100" viewBox="0 0 96 100" fill="none">
  <g filter="url(#filter0_dd_1005_3104)">
    <path d="M8 52C8 74.0915 25.9086 92 48 92C70.0915 92 88 74.0915 88 52C88 29.9086 70.0915 12 48 12C25.9086 12 8 29.9086 8 52Z" fill="#25D366" fill-opacity="0.5"/>
    <path fill-rule="evenodd" clip-rule="evenodd" d="M62 37.75C58.25 34 53.25 32 48 32C37 32 28 41 28 52C28 55.5 29 59 30.75 62L28 72L38.5 69.25C41.5 70.75 44.75 71.75 48 71.75C59 71.75 68 62.75 68 51.75C68 46.5 65.75 41.5 62 37.75ZM48 68.5C45 68.5 42 67.75 39.5 66.25L39 66L32.75 67.75L34.5 61.75L34 61C32.25 58.25 31.5 55.25 31.5 52.25C31.5 43.25 39 35.75 48 35.75C52.5 35.75 56.5 37.5 59.75 40.5C63 43.75 64.5 47.75 64.5 52.25C64.5 61 57.25 68.5 48 68.5ZM57 56C56.5 55.75 54 54.5 53.5 54.5C53 54.25 52.75 54.25 52.5 54.75C52.25 55.25 51.25 56.25 51 56.75C50.75 57 50.5 57 50 57C49.5 56.75 48 56.25 46 54.5C44.5 53.25 43.5 51.5 43.25 51C43 50.5 43.25 50.25 43.5 50C43.75 49.75 44 49.5 44.25 49.25C44.5 49 44.5 48.75 44.75 48.5C45 48.25 44.75 48 44.75 47.75C44.75 47.5 43.75 45 43.25 44C43 43.25 42.5 43.25 42.25 43.25C42 43.25 41.75 43.25 41.25 43.25C41 43.25 40.5 43.25 40 43.75C39.5 44.25 38.25 45.5 38.25 48C38.25 50.5 40 52.75 40.25 53.25C40.5 53.5 43.75 58.75 48.75 60.75C53 62.5 53.75 62 54.75 62C55.75 62 57.75 60.75 58 59.75C58.5 58.5 58.5 57.5 58.25 57.5C58 56.25 57.5 56.25 57 56Z" fill="white"/>
  </g>
  <defs>
    <filter id="filter0_dd_1005_3104" x="0" y="0" width="96" height="100" filterUnits="userSpaceOnUse" color-interpolation-filters="sRGB">
      <feFlood flood-opacity="0" result="BackgroundImageFix"/>
      <feColorMatrix in="SourceAlpha" type="matrix" values="0 0 0 0 0 0 0 0 0 0 0 0 0 0 0 0 0 0 127 0" result="hardAlpha"/>
      <feOffset dy="4"/>
      <feGaussianBlur stdDeviation="2"/>
      <feComposite in2="hardAlpha" operator="out"/>
      <feColorMatrix type="matrix" values="0 0 0 0 0 0 0 0 0 0 0 0 0 0 0 0 0 0 0.1 0"/>
      <feBlend mode="normal" in2="BackgroundImageFix" result="effect1_dropShadow_1005_3104"/>
      <feColorMatrix in="SourceAlpha" type="matrix" values="0 0 0 0 0 0 0 0 0 0 0 0 0 0 0 0 0 0 127 0" result="hardAlpha"/>
      <feOffset dy="-4"/>
      <feGaussianBlur stdDeviation="4"/>
      <feComposite in2="hardAlpha" operator="out"/>
      <feColorMatrix type="matrix" values="0 0 0 0 0 0 0 0 0 0 0 0 0 0 0 0 0 0 0.1 0"/>
      <feBlend mode="normal" in2="effect1_dropShadow_1005_3104" result="effect2_dropShadow_1005_3104"/>
      <feBlend mode="normal" in="SourceGraphic" in2="effect2_dropShadow_1005_3104" result="shape"/>
    </filter>
  </defs>
</svg>