<svg width="16" height="16" viewBox="0 0 16 16" fill="none" xmlns="http://www.w3.org/2000/svg">
<path d="M13.5303 5.45246C13.227 4.77869 12.7916 4.17377 12.2388 3.65246C11.686 3.13607 11.0452 2.72787 10.331 2.44262C9.59227 2.14754 8.80956 2 8.00239 2C7.19523 2 6.41252 2.14754 5.67384 2.44262C4.95962 2.72787 4.31877 3.13115 3.76599 3.65246C3.2132 4.17377 2.77782 4.77869 2.47453 5.45246C2.16144 6.15082 2 6.89836 2 7.66557C2 9.0082 2.49897 10.2967 3.41376 11.3197L2.92457 14L5.52708 12.8344C6.30489 13.1689 7.13163 13.3361 7.9975 13.3361C8.80466 13.3361 9.58738 13.1885 10.3261 12.8934C11.0403 12.6082 11.6811 12.2049 12.2339 11.6836C12.7867 11.1623 13.2221 10.5574 13.5254 9.88361C13.8385 9.18524 13.9999 8.4377 13.9999 7.67049C14.0048 6.89836 13.8433 6.15574 13.5303 5.45246Z" stroke="#1E1E1E" stroke-width="0.8"/>
<path d="M10.4371 8.79667C10.1827 8.66881 9.99687 8.59012 9.86478 8.54094C9.78162 8.51143 9.58594 8.4229 9.51745 8.477C9.30221 8.65405 9.07228 9.15569 8.82769 9.24913C8.22109 9.1311 7.65852 8.71307 7.21825 8.2852C7.02257 8.09831 6.66057 7.56717 6.5823 7.42454C6.56763 7.277 6.83178 7.08028 6.89048 6.96717C7.19378 6.6229 6.96387 6.40651 6.92474 6.26389C6.85625 6.11635 6.73885 5.85077 6.63612 5.63438C6.54806 5.49176 6.52848 5.28028 6.37193 5.20159C5.70663 4.85733 5.32508 5.54586 5.16854 5.90487C4.2244 8.19176 9.89902 12.5442 11.0535 9.54422C11.1122 9.28356 11.0877 9.1852 10.9997 9.06717C10.8236 8.94422 10.6181 8.89012 10.4371 8.79667Z" stroke="#1E1E1E" stroke-width="0.8"/>
</svg>
