<svg width="32" height="32" viewBox="0 0 32 32" fill="none" xmlns="http://www.w3.org/2000/svg">
<g id="Logo Facebook">
<path d="M32 16C32 24.8366 24.8366 32 16 32C7.16344 32 0 24.8366 0 16C0 7.16344 7.16344 0 16 0C24.8366 0 32 7.16344 32 16Z" fill="#585756"/>
<path d="M18.7659 10.0401H20.3763V7.23533C20.0984 7.19711 19.1429 7.11111 18.0302 7.11111C15.7083 7.11111 14.1178 8.57155 14.1178 11.2558V13.7261H11.5556V16.8616H14.1178V24.7511H17.2591V16.8623H19.7177L20.108 13.7268H17.2584V11.5667C17.2591 10.6604 17.5032 10.0401 18.7659 10.0401Z" fill="#F4F0EC"/>
</g>
</svg>
